<svg width="20" height="20" viewBox="0 0 20 20" fill="none" xmlns="http://www.w3.org/2000/svg">
<path d="M1 17V8.07037C1 7.40166 1.3342 6.7772 1.8906 6.40627L8.8906 1.7396C9.5624 1.29174 10.4376 1.29174 11.1094 1.7396L18.1094 6.40627C18.6658 6.7772 19 7.40166 19 8.07037V17M1 17C1 18.1046 1.89543 19 3 19H17C18.1046 19 19 18.1046 19 17M1 17L7.75 12.5M19 17L12.25 12.5M1 8L7.75 12.5M19 8L12.25 12.5M12.25 12.5L11.1094 13.2604C10.4376 13.7083 9.5624 13.7083 8.8906 13.2604L7.75 12.5" stroke="#1FE3CF" stroke-width="2" stroke-linecap="round" stroke-linejoin="round"/>
</svg>
